# xmcd
#
# Track frame offsets: 
#        150
#        17612
#        44325
#        67262
#        80975
#        112887
#        132387
#        160737
#        183000
#        201400
#        219112
#        232987
#        246800
#        292125
#
# Disc length: 4066 seconds
#
# Revision: 7
# Processed by: cddbd v1.5.2PL0 Copyright (c) Steve Scherf et al.
# Submitted via: ExactAudioCopy v1.0b3
#
DISCID=c80fe00e
DTITLE=Axel Zwingenberger - Boogie Woogie Classics
DYEAR=1992
DGENRE=Boogie Woogie
TTITLE0=Pinetop's Blues
TTITLE1=Mr. Freddie Blues
TTITLE2=Honky Tonk Train Blues
TTITLE3=Boogie Woogie Jump
TTITLE4=Suitcase Blues - Part 1 and 2
TTITLE5=Cow Cow Blues
TTITLE6=Boogie Woogie Stomp
TTITLE7=Yancey Special
TTITLE8=Chicago Flyer
TTITLE9=Bass Goin' Crazy
TTITLE10=New Blues On The Dark Side
TTITLE11=The Boogie Rocks
TTITLE12=Roll 'em Pete
TTITLE13=Swanee River Boogie
EXTD=
EXTT0=
EXTT1=
EXTT2=
EXTT3=
EXTT4=
EXTT5=
EXTT6=
EXTT7=
EXTT8=
EXTT9=
EXTT10=
EXTT11=
EXTT12=
EXTT13=
PLAYORDER=
